<?xml version="1.0" encoding="UTF-8"?>
<svg id="Layer_1" xmlns="http://www.w3.org/2000/svg" version="1.1" viewBox="0 0 612 792">
  <!-- Generator: Adobe Illustrator 29.0.1, SVG Export Plug-In . SVG Version: 2.1.0 Build 192)  -->
  <defs>
    <style>
      .st0, .st1, .st2, .st3, .st4, .st5, .st6, .st7, .st8 {
        stroke: #c57641;
        stroke-miterlimit: 10;
      }

      .st0, .st1, .st2, .st3, .st7 {
        fill: none;
      }

      .st0, .st4 {
        stroke-width: .25px;
      }

      .st9 {
        font-size: 35px;
      }

      .st9, .st10, .st11, .st12, .st4, .st5, .st6 {
        fill: #c57641;
      }

      .st9, .st11, .st12 {
        font-family: Poppins-Bold, Poppins;
        font-weight: 700;
      }

      .st1 {
        opacity: .7;
      }

      .st1, .st2, .st6, .st7 {
        stroke-width: 5px;
      }

      .st11 {
        font-size: 45px;
      }

      .st3, .st8 {
        stroke-width: 3px;
      }

      .st12 {
        font-size: 26px;
      }

      .st7 {
        opacity: .8;
      }

      .st8 {
        fill: #fff;
      }
    </style>
  </defs>
  <path class="st8" d="M227.7,450.07"/>
  <path class="st3" d="M261.12,416.56"/>
  <path class="st2" d="M284.91,345.25c-3.02.56-7.88,1.97-12.21,5.88-5.4,4.87-10.24,13.84-7.46,22.16,1.03,3.08,2.83,5.26,4.19,6.62h-4.55c.44,4.41.68,10.9-.56,18.26,0,0-1.2,7.14-3.71,13.36-.27.66-.55,1.31-.55,1.31-.17.39-.32.74-.46,1.03"/>
  <path class="st0" d="M284.76,342.8"/>
  <path class="st7" d="M282.46,345.75"/>
  <path class="st7" d="M310.29,406.56"/>
  <path class="st7" d="M322.12,413.22"/>
  <path class="st2" d="M283.68,345.25c3.02.56,7.88,1.97,12.21,5.88,5.4,4.87,10.24,13.84,7.46,22.16-1.03,3.08-2.83,5.26-4.19,6.62h4.55c-.11,6.1.57,11.05,1.21,14.46,1.36,7.16,3.47,18.32,9.91,20.87,1.09.43,4.11,1.33,7.75,1.78,1.6.2,2.95.26,3.91.28"/>
  <path class="st0" d="M285.05,342.8"/>
  <path class="st7" d="M287.35,345.75"/>
  <path class="st2" d="M345.84,421.14"/>
  <path class="st2" d="M260.39,415.23"/>
  <path class="st2" d="M258.18,428.06"/>
  <g>
    <rect class="st6" x="263.79" y="417.29" width="63.89" height="0"/>
    <path class="st5" d="M258.93,414.11"/>
    <rect class="st6" x="269.71" y="424.09" width="63.89" height="0"/>
    <path class="st5" d="M264.85,420.91"/>
    <rect class="st6" x="278.45" y="430.86" width="63.89" height="0"/>
    <path class="st5" d="M273.59,427.68"/>
    <polygon class="st4" points="263.79 414.79 263.79 419.79 269.69 421.59 269.71 426.58 278.42 428.37 278.45 433.36 263.79 433.36 263.79 414.79"/>
    <path class="st4" d="M255.79,411.99"/>
    <polyline class="st4" points="263.79 414.79 257.42 413.06 257.42 433.36 263.79 433.36"/>
  </g>
  <path class="st1" d="M282.46,346.39c2.85.54,7.44,1.91,11.53,5.69,5.1,4.72,9.67,13.4,7.05,21.46-.97,2.98-2.67,5.1-3.96,6.41h4.3c-.1,5.91.53,10.7,1.14,14,1.28,6.93,3.28,17.74,9.36,20.21.91.37,5.17,3.28,7.32,1.72.43-.31.67-.72.81-1.04"/>
  <text class="st11" transform="translate(309.03 413.22)"><tspan x="0" y="0">t</tspan></text>
  <text class="st9" transform="translate(326.5 420.63)"><tspan x="0" y="0">h</tspan></text>
  <path class="st10" d="M348.1,428.1"/>
  <path class="st10" d="M340.63,427.35"/>
  <polyline class="st10" points="342.15 420.63 342.15 433.36 348.1 433.36 348.1 420.63"/>
  <text class="st12" transform="translate(348.1 416.56)"><tspan x="0" y="0">a</tspan></text>
  <text class="st12" transform="translate(348.83 432.75) scale(1.45 1)"><tspan x="0" y="0">r</tspan></text>
</svg>