<svg width="34" height="35" viewBox="0 0 34 35" fill="none" xmlns="http://www.w3.org/2000/svg">
<g id="mingcute:file-line">
<g id="Group">
<path id="Vector" d="M19.2469 3.33337C19.9121 3.33354 20.556 3.56774 21.0659 3.99496L21.2501 4.16354L27.5032 10.4167C27.9736 10.8871 28.2635 11.5079 28.3221 12.1705L28.3334 12.4199V28.8334C28.3336 29.5482 28.0637 30.2367 27.5776 30.7608C27.0916 31.285 26.4254 31.606 25.7126 31.6596L25.5001 31.6667H8.50008C7.78526 31.6669 7.09678 31.397 6.57264 30.9109C6.0485 30.4249 5.72744 29.7587 5.67383 29.0459L5.66675 28.8334V6.16671C5.66652 5.45189 5.93649 4.7634 6.42254 4.23926C6.90858 3.71512 7.57478 3.39407 8.28758 3.34046L8.50008 3.33337H19.2469ZM17.0001 6.16671H8.50008V28.8334H25.5001V14.6667H19.1251C18.5615 14.6667 18.021 14.4428 17.6225 14.0443C17.224 13.6458 17.0001 13.1053 17.0001 12.5417V6.16671ZM19.8334 6.75321V11.8334H24.9136L19.8334 6.75321Z" fill="#C57642"/>
</g>
</g>
</svg>
